<?xml version="1.0" encoding="UTF-8" standalone="no"?>
<!-- Created with Inkscape (http://www.inkscape.org/) -->

<svg
   xmlns:dc="http://purl.org/dc/elements/1.1/"
   xmlns:cc="http://creativecommons.org/ns#"
   xmlns:rdf="http://www.w3.org/1999/02/22-rdf-syntax-ns#"
   xmlns:svg="http://www.w3.org/2000/svg"
   xmlns="http://www.w3.org/2000/svg"
   xmlns:sodipodi="http://sodipodi.sourceforge.net/DTD/sodipodi-0.dtd"
   xmlns:inkscape="http://www.inkscape.org/namespaces/inkscape"
   version="1.1"
   id="svg18"
   width="582.01093"
   height="267.41574"
   viewBox="0 0 582.01092 267.41574"
   sodipodi:docname="popcorn.svg"
   inkscape:version="0.92.1 r15371">
  <metadata
     id="metadata24">
    <rdf:RDF>
      <cc:Work
         rdf:about="">
        <dc:format>image/svg+xml</dc:format>
        <dc:type
           rdf:resource="http://purl.org/dc/dcmitype/StillImage" />
        <dc:title></dc:title>
      </cc:Work>
    </rdf:RDF>
  </metadata>
  <defs
     id="defs22" />
  <sodipodi:namedview
     pagecolor="#ffffff"
     bordercolor="#666666"
     borderopacity="1"
     objecttolerance="10"
     gridtolerance="10"
     guidetolerance="10"
     inkscape:pageopacity="0"
     inkscape:pageshadow="2"
     inkscape:window-width="1920"
     inkscape:window-height="1027"
     id="namedview20"
     showgrid="false"
     fit-margin-top="0"
     fit-margin-left="0"
     fit-margin-right="0"
     fit-margin-bottom="0"
     inkscape:zoom="0.68052028"
     inkscape:cx="275.18828"
     inkscape:cy="138.71271"
     inkscape:window-x="-8"
     inkscape:window-y="-8"
     inkscape:window-maximized="1"
     inkscape:current-layer="svg18" />
  <path
     style="fill:#000000;stroke-width:0.31999999"
     d="m 248.73764,267.34348 c -11.32639,-1.70875 -20.71301,-6.23956 -28.75724,-13.88079 l -2.34421,-2.22677 -1.38294,2.79388 c -1.78933,3.6149 -5.98886,7.9464 -9.45003,9.74702 -4.00177,2.08185 -6.61987,2.64091 -12.30558,2.6277 -4.27305,-0.01 -5.42536,-0.12846 -8.32,-0.85578 -5.51142,-1.38482 -10.17891,-3.5926 -11.91918,-5.6379 l -0.72082,-0.84717 -8.16,-0.0231 c -8.39202,-0.0237 -12.15489,-0.36515 -19.39805,-1.76019 -4.30251,-0.82867 -11.00558,-2.68081 -12.51234,-3.4573 -2.53419,-1.30598 -4.39683,-4.12758 -5.4357,-8.2342 -0.44298,-1.75107 -0.55563,-3.55633 -0.54696,-8.76525 0.0162,-9.70997 1.02777,-16.01674 6.5443,-40.8 3.88945,-17.47357 5.4694,-22.69887 8.64145,-28.57964 3.30313,-6.1238 9.57974,-11.81327 14.74602,-13.36661 2.92666,-0.87996 9.77883,-0.81475 14.25155,0.13562 1.78764,0.37984 4.23564,0.69101 5.44,0.69149 1.37276,6.4e-4 3.60528,0.3587 5.98387,0.96 2.08678,0.52752 4.40791,0.95914 5.15808,0.95914 1.88821,0 6.21733,0.78681 9.39811,1.70809 2.16731,0.62775 2.91266,0.71532 3.9969,0.46961 2.45835,-0.55711 7.50112,-0.36351 10.56383,0.40556 3.13525,0.78728 6.41372,2.69533 8.65656,5.03807 l 1.24763,1.3032 0.85838,-1.18227 c 0.47211,-0.65024 2.01648,-2.22511 3.43193,-3.4997 2.2021,-1.98297 3.04155,-2.50296 5.81622,-3.60282 11.30683,-4.48197 24.64314,-5.01113 36.88513,-1.46354 1.49862,0.43428 4.22513,1.09414 6.05892,1.46636 1.83379,0.37222 4.31421,1.01628 5.51204,1.43125 4.53062,1.56955 10.08111,5.59572 13.21392,9.58499 l 1.8882,2.40441 0.0864,-1.0316 c 0.1989,-2.37508 1.19112,-6.01619 2.37395,-8.71161 0.6951,-1.584 1.41132,-3.27415 1.59161,-3.75589 0.43542,-1.1635 4.14731,-3.45682 7.46804,-4.614 2.36632,-0.82459 2.92315,-0.89153 7.36,-0.88482 3.75,0.006 5.49367,0.1612 7.97098,0.71098 2.29053,0.50833 4.23043,0.70373 6.98669,0.70373 4.61744,0 7.87609,0.72603 11.5607,2.57574 l 2.5184,1.26426 h 4.41846 c 4.83994,0 7.23652,0.25559 13.74477,1.46585 9.76589,1.81604 12.22432,2.58743 14.29709,4.48599 1.34153,1.22882 1.55443,1.29669 1.82832,0.58294 0.10662,-0.27788 0.72102,-1.29945 1.36537,-2.27017 4.47053,-6.73515 11.16602,-10.65984 20.42922,-11.97498 3.16755,-0.44971 10.75961,-0.18551 14.72,0.51225 6.97184,1.22833 15.73773,3.98663 23.12,7.27503 l 3.6,1.6036 v 1.23938 c 0,1.02736 0.30128,1.60894 1.76121,3.39974 5.32077,6.52667 8.53715,18.31638 8.05357,29.52037 -0.22291,5.16414 -1.31123,10.29293 -2.88496,13.5954 -1.41808,2.97588 -4.54633,7.06902 -7.25837,9.49717 l -2.1959,1.96605 1.76592,1.95069 c 3.4368,3.7964 5.81094,10.34892 6.09817,16.83069 0.12743,2.87533 0.0314,3.81524 -0.66607,6.51603 -1.69533,6.56522 -5.00144,9.97569 -11.23367,11.58826 -2.91053,0.75309 -3.60505,0.81395 -7.6799,0.67303 -3.72768,-0.12892 -5.23232,-0.34436 -8.96,-1.28294 -2.464,-0.6204 -6.92061,-1.50023 -9.90359,-1.95518 -5.17126,-0.7887 -5.91955,-1.04344 -5.93151,-2.0192 -0.003,-0.22 -0.0409,-0.39753 -0.0849,-0.39452 -0.044,0.003 -1.16,0.28855 -2.48,0.63452 -5.50403,1.44258 -12.44381,0.38841 -16.26102,-2.4701 -0.82532,-0.61803 -2.4065,-1.06719 -7.11764,-2.02187 -3.33113,-0.67503 -6.19203,-1.31102 -6.35753,-1.41331 -0.16551,-0.1023 -1.21059,1.14698 -2.32237,2.77617 -2.5464,3.73144 -5.46035,6.69833 -8.74144,8.90029 -3.14905,2.11334 -5.98941,3.23647 -10.51757,4.15882 -4.64995,0.94716 -10.83011,0.7879 -16.04243,-0.41341 -1.936,-0.4462 -4.672,-0.90448 -6.08,-1.0184 -8.1823,-0.66202 -17.05959,-3.58695 -22.41513,-7.38544 -2.15934,-1.53153 -5.63234,-5.09753 -6.38824,-6.55929 -0.27119,-0.5244 -0.55328,-0.95346 -0.62689,-0.95346 -0.0736,0 -0.96991,1.116 -1.99178,2.48 -5.20635,6.94945 -12.6809,13.05311 -20.71691,16.91727 -4.13472,1.9882 -7.43698,2.93435 -11.70104,3.35254 -3.61837,0.35486 -12.24219,0.61484 -13.6,0.41 z m 18.32491,-8.14902 c 4.90618,-1.68798 10.74509,-5.21457 15.45034,-9.33171 10.14828,-8.87987 16.69134,-22.37055 18.19505,-37.51518 0.22468,-2.26283 0.15644,-3.88225 -0.32005,-7.59488 -2.63586,-20.53767 -9.85818,-33.97196 -20.97276,-39.01155 -3.10501,-1.40788 -5.89828,-1.96386 -9.87749,-1.96602 -4.2064,-0.002 -7.40835,0.83284 -12.5098,3.26283 -4.71479,2.24581 -7.85682,4.48399 -11.69942,8.33391 -9.43525,9.45324 -14.03182,21.79871 -14.83798,39.85181 -0.18235,4.08357 -0.11248,5.42075 0.46814,8.959 2.71276,16.53143 9.31912,27.68725 19.38163,32.72879 4.0102,2.0092 10.25664,3.42236 13.52965,3.06088 0.75472,-0.0833 2.19143,-0.4334 3.19269,-0.77788 z m -2.02734,-34.61079 c -1.82921,-1.23953 -3.46844,-3.52662 -4.13402,-5.76787 -1.03323,-3.47926 -0.36485,-10.82608 1.29321,-14.21505 1.12909,-2.30778 3.26135,-4.12125 5.41148,-4.60242 2.52114,-0.56421 3.8204,-0.19649 5.60251,1.58562 2.53955,2.53954 3.67874,6.43738 3.45906,11.83544 -0.16171,3.97359 -0.86184,6.24856 -2.68906,8.73773 -2.6079,3.55268 -5.94509,4.45815 -8.94318,2.42655 z m -63.57757,33.46949 c 0.924,-0.2844 1.68,-0.61739 1.68,-0.73996 0,-0.12258 0.1854,-0.22287 0.412,-0.22287 0.7197,0 3.86683,-2.1908 4.99564,-3.47759 1.59057,-1.81317 2.32182,-3.66244 4.6143,-11.66907 5.56554,-19.438 8.07377,-31.98913 8.90819,-44.5763 0.55333,-8.34704 -0.28476,-17.29911 -1.97788,-21.1267 -0.32528,-0.73535 -0.58831,-1.4649 -0.58451,-1.62123 0.004,-0.15632 -0.11735,-0.37232 -0.26924,-0.48 -0.15189,-0.10767 -0.56019,-0.84044 -0.90733,-1.62836 -0.89698,-2.0359 -3.87732,-4.9642 -6.07769,-5.97156 -2.17579,-0.99611 -5.10584,-1.3021 -7.51697,-0.785 -1.69563,0.36365 -5.43651,1.87914 -5.43651,2.20242 0,0.0912 0.50139,1.71684 1.1142,3.61246 2.78812,8.62449 2.7625,15.32224 -0.0807,21.09427 -2.89723,5.88177 -10.02958,10.24919 -12.21031,7.47684 -0.52685,-0.66978 -0.66323,-1.30167 -0.66323,-3.07298 0,-2.20158 0.0188,-2.25069 1.48169,-3.87685 3.13413,-3.48383 5.734,-8.17308 6.52689,-11.7722 0.65409,-2.96909 0.28667,-6.57354 -0.9199,-9.02443 -3.16083,-6.42056 -12.89483,-11.71918 -19.17729,-10.439 -2.65289,0.54058 -4.63224,1.73728 -6.96688,4.21212 -3.72232,3.94586 -5.97125,9.58554 -10.69358,26.8165 -5.59763,20.42474 -7.97268,35.93468 -7.0788,46.22712 0.37417,4.30826 0.41647,4.38505 3.70787,6.73016 2.50571,1.78531 5.84188,3.44037 8.81378,4.3725 3.40412,1.06768 8.88875,1.05527 11.66622,-0.0264 4.34466,-1.69202 7.75923,-4.75302 9.84257,-8.82337 1.01988,-1.9926 2.46275,-7.32561 3.03021,-11.2 0.89528,-6.11255 -0.24353,-11.16484 -3.27225,-14.51728 -0.96613,-1.06939 -1.15106,-1.47752 -0.97939,-2.16152 0.30129,-1.20041 1.88818,-2.6812 2.87332,-2.6812 1.66421,0 5.02909,3.95613 6.90314,8.1161 1.26157,2.8004 1.9224,6.10252 1.9224,9.60615 0,6.03108 -1.52613,10.56668 -6.13826,18.24267 -3.26908,5.44076 -4.2333,7.47989 -3.92134,8.29286 0.38888,1.0134 5.03767,2.84706 8.62945,3.40378 2.39235,0.37081 5.56226,0.16137 7.75015,-0.51206 z m 144.34812,-3.96194 c 6.93674,-0.86979 12.21718,-4.47176 16.83069,-11.48073 2.44416,-3.71323 3.4096,-5.61437 7.1928,-14.16377 5.0695,-11.45621 6.84118,-20.45892 7.77017,-39.48374 0.61178,-12.52853 0.12663,-14.97697 -3.73206,-18.83568 -2.03328,-2.03328 -4.48179,-3.30265 -7.3025,-3.78582 -3.89574,-0.66731 -9.86924,1.17354 -13.27139,4.08984 -2.64067,2.26357 -5.32419,6.70697 -6.90099,11.42678 -2.99901,8.97688 -3.2615,20.21564 -0.71578,30.64557 0.94276,3.86257 1.07012,6.7451 0.33066,7.48457 -0.55142,0.55141 -2.24774,0.94579 -3.36861,0.78318 -0.98598,-0.14304 -3.49961,-3.82743 -4.76729,-6.98775 -1.7273,-4.30603 -2.06628,-6.33601 -2.05725,-12.32 0.007,-4.67123 0.13107,-6.02344 0.8775,-9.56852 1.14298,-5.42838 3.32362,-11.88838 5.67018,-16.7974 1.04265,-2.18126 1.89574,-4.35161 1.89574,-4.823 0,-3.02391 -2.78665,-6.65985 -6.50944,-8.49332 -7.32777,-3.60894 -14.78326,-1.10567 -18.8959,6.34453 -1.92825,3.4931 -3.55738,8.80302 -5.123,16.69771 -0.90353,4.55606 -0.98397,5.19768 -1.50441,12 -1.04911,13.71222 1.14621,36.68301 4.08763,42.77099 1.08216,2.23978 5.70599,7.04377 8.58512,8.91962 5.37111,3.49945 11.51258,5.56489 17.44839,5.8681 0.44464,0.0227 2.0015,-0.10831 3.45974,-0.29116 z m 87.79843,-5.76954 c 4.46787,-1.18776 7.00819,-6.75802 6.06307,-13.29478 -0.77699,-5.37398 -3.25408,-10.3765 -5.82634,-11.76635 l -1.11619,-0.60312 -2.23353,0.9699 c -1.22848,0.53345 -3.38557,1.48709 -4.79357,2.11921 -1.7537,0.78732 -3.03303,1.15055 -4.06186,1.15322 -2.04985,0.005 -2.49814,-0.6697 -2.49814,-3.76184 0,-2.06133 0.0945,-2.43787 0.78544,-3.1288 0.63561,-0.63559 1.10877,-0.78575 2.48,-0.78701 5.00086,-0.005 16.38867,-9.02495 19.59139,-15.51844 1.55984,-3.16255 2.204,-6.90412 2.20368,-12.8 0,-14.42009 -4.87734,-24.84869 -13.17254,-28.16948 -4.30183,-1.72213 -13.88653,-1.72387 -20.66743,-0.004 -4.70524,1.19358 -7.79241,2.9531 -11.22588,6.39815 -1.94528,1.95186 -3.16292,3.48179 -3.73732,4.6959 -2.09612,4.43064 -7.52569,21.91595 -9.3775,30.19918 -2.9904,13.37639 -3.65798,22.15682 -2.21968,29.19482 0.65667,3.2132 1.50429,4.89975 3.60906,7.18117 2.36028,2.55837 5.18678,3.94411 8.04406,3.94374 3.85482,-6.4e-4 7.58493,-2.03926 10.47738,-5.72664 3.53699,-4.50902 5.88438,-6.5931 7.42607,-6.5931 1.19639,0 1.64935,1.31275 2.10532,6.10135 0.62764,6.592 1.65049,8.23528 5.89785,9.4753 4.39357,1.2827 9.0937,1.55955 12.24666,0.72136 z M 423.13763,200.8704 c -3.47437,-1.14706 -8.43587,-4.76992 -11.93027,-8.71143 -4.61059,-5.20051 -5.17479,-10.40537 -1.34336,-12.39303 3.35139,-1.73862 10.62713,1.6684 16.25142,7.61006 3.32432,3.51194 4.64874,6.07513 4.81226,9.31341 0.1095,2.16855 0.0645,2.34782 -0.84388,3.36453 -0.90569,1.01363 -1.09168,1.07856 -3.31286,1.15649 -1.32458,0.0465 -2.91286,-0.10217 -3.63331,-0.34003 z M 40.417653,151.4026 C 33.816351,150.22942 23.900898,147.02868 20.264302,144.89704 11.274947,139.62781 4.9176134,126.34496 1.3909964,105.46366 -1.008167,91.258084 -0.23498695,72.411556 3.1793774,61.871246 c 0.354978,-1.09583 0.539721,-2.17583 0.410542,-2.4 -0.12918,-0.22416 -0.120096,-0.30389 0.02019,-0.17715 0.140283,0.12673 0.862732,-1.11886 1.605444,-2.76799 3.5823236,-7.95421 9.4053516,-13.77372 16.9366196,-16.92637 3.426993,-1.43457 10.53788,-3.48442 14.745483,-4.25068 4.502515,-0.81996 16.079304,-0.82861 21.275935,-0.0159 5.516751,0.86278 11.148389,2.20782 16.324063,3.89878 5.112496,1.67032 11.026996,4.09303 11.744946,4.81097 0.25342,0.25342 0.50729,0.46077 0.56415,0.46077 0.0569,0 0.84402,-1.332 1.74925,-2.96 2.695191,-4.84712 5.702741,-8.7996 9.941651,-13.06517 6.922949,-6.96652 14.271029,-11.20225 23.839999,-13.74237 5.17483,-1.37368 8.96386,-1.915 14.87999,-2.12584 5.4599,-0.19459 10.7767,0.14629 15.85944,1.01679 3.71902,0.63695 7.89479,1.68235 8.12171,2.03328 0.0984,0.15212 1.54685,0.58634 3.21885,0.96493 3.83285,0.86787 10.31237,2.99586 13.38323,4.39529 2.56569,1.16923 7.70427,4.43901 9.95253,6.333 l 1.41576,1.19267 1.16763,-3.3182 c 3.06709,-8.71617 8.12884,-14.67273 15.68157,-18.4537597 6.17306,-3.09035 10.7815,-4.02241 19.83928,-4.01253 6.7205,0.007 8.91285,0.23462 15.2,1.5758 1.936,0.413 5.42509,1.12844 7.75353,1.58987 6.8637,1.36021 13.73047,3.93711 17.4816,6.5603297 0.72867,0.50958 2.24935,1.77204 3.37927,2.80545 l 2.05441,1.87895 1.10633,-2.21144 c 1.18437,-2.36742 4.2652,-5.8874497 6.74797,-7.7099697 10.82187,-7.94398998 35.08699,-9.6333 53.26776,-3.70845 7.25856,2.36546 12.9473,6.33474 17.4296,12.1613697 1.15085,1.496 2.20698,2.85273 2.34695,3.01496 0.14451,0.16747 0.99916,-0.40931 1.97734,-1.33441 5.73485,-5.42379 14.22966,-8.1924097 26.45523,-8.6222597 6.83072,-0.24017 18.42995,0.77617 20.40704,1.7880997 0.30413,0.15566 2.06496,0.60227 3.91296,0.99247 14.64877,3.09304 24.75373,10.6753 31.1336,23.36114 l 2.01168,4 1.90736,-2.05038 c 7.52438,-8.08858 18.43014,-11.40852 30.62668,-9.32341 2.01463,0.34442 4.44093,0.90866 5.39181,1.25387 0.95088,0.3452 2.80887,0.85918 4.12887,1.14217 3.58892,0.76942 9.11199,2.65603 11.99999,4.09907 3.76874,1.88312 9.04829,4.94699 10.90868,6.3306 1.85792,1.38181 4.391,4.66105 5.85171,7.57541 l 0.99603,1.98733 2.32896,-1.67094 c 2.64682,-1.89901 5.26576,-3.1558 8.25584,-3.96183 2.80074,-0.755 8.87209,-0.76917 12.29878,-0.0287 1.408,0.30425 4.05479,0.85493 5.88176,1.22374 3.90791,0.78888 8.13453,2.21012 10.59824,3.56375 5.68631,3.12421 9.95354,7.97475 12.29485,13.97545 l 0.66957,1.71613 2.71779,0.77072 c 6.91635,1.96137 11.50701,5.74233 14.252,11.738188 1.03661,2.26424 2.37795,7.61977 2.3791,9.49884 0.003,5.13867 -6.57417,21.854776 -13.40941,34.079996 -2.64956,4.73891 -6.92089,11.33596 -9.63087,14.87479 -3.52717,4.60599 -10.721,10.9423 -14.72906,12.97334 -1.81632,0.92039 -6.20752,2.07325 -7.87728,2.06808 -0.67469,-0.002 -2.01869,-0.21638 -2.98669,-0.4762 -0.968,-0.25983 -2.71315,-0.47412 -3.87808,-0.47621 -2.83901,-0.005 -7.15392,-0.78562 -9.75462,-1.76451 -5.99158,-2.25523 -10.31053,-6.38377 -14.81232,-14.15929 -0.73875,-1.276 -1.54746,-2.32 -1.79709,-2.32 -1.18291,0 -4.12848,-1.45964 -5.58102,-2.76561 l -1.61411,-1.45121 -1.52138,1.35319 c -1.94685,1.73162 -4.13162,2.7371 -7.02563,3.23337 -2.71789,0.46607 -4.72128,0.16504 -10.01574,-1.50494 -1.848,-0.58289 -4.61975,-1.29053 -6.15946,-1.57252 -9.87709,-1.80894 -15.75264,-5.07649 -19.98227,-11.11264 -0.96704,-1.38008 -1.99677,-2.63291 -2.28826,-2.78407 -0.29152,-0.15116 -2.25801,-0.35567 -4.37001,-0.45447 -2.112,-0.0988 -4.704,-0.41606 -5.76,-0.70502 -2.65693,-0.72705 -7.51581,-3.06752 -9.87248,-4.75549 -2.77047,-1.98432 -6.24656,-5.67577 -6.48976,-6.8918 -0.10877,-0.54383 -0.25792,-0.98879 -0.33143,-0.98879 -0.0735,0 -0.88352,0.55353 -1.8,1.23006 -4.58259,3.38279 -10.18003,5.98365 -16.06633,7.46529 -4.56774,1.14975 -6.36086,1.0938 -12.84947,-0.40088 -5.48666,-1.26387 -7.70048,-1.73403 -13.40512,-2.84686 -13.92301,-2.71606 -23.87539,-7.620756 -26.89946,-13.256506 l -0.95024,-1.77087 -1.90784,1.30146 c -2.40275,1.63906 -7.30028,4.10992 -10.2406,5.16652 -3.24714,1.16684 -9.45354,2.494356 -12.61923,2.699186 -5.70663,0.36922 -19.11885,-1.014316 -25.90232,-2.671956 -7.37987,-1.80339 -14.44362,-4.9055 -19.17541,-8.42106 -4.77093,-3.54464 -9.17612,-9.14364 -10.51049,-13.358858 l -0.52691,-1.66448 -1.1914,0.94361 c -1.7668,1.399328 -5.4857,3.053948 -9.1015,4.049458 -4.572,1.25876 -9.72523,1.2504 -14.68561,-0.0238 -1.91708,-0.49246 -3.65966,-0.96217 -3.8724,-1.04381 -0.28622,-0.10983 -0.43489,1.04145 -0.57177,4.42755 -0.20801,5.14593 -0.91461,9.33984 -1.89959,11.27473 -2.01601,3.96026 -5.41182,8.111606 -8.33728,10.192256 -2.71042,1.92771 -3.54174,2.31962 -6.54926,3.08751 -2.83213,0.7231 -4.67523,0.81523 -6.64409,0.33211 -0.704,-0.17275 -3.00927,-0.52391 -5.12281,-0.78037 -6.31839,-0.76667 -12.13142,-2.79657 -16.47011,-5.75135 l -1.75293,-1.19379 -0.75809,0.90743 c -4.87695,5.83768 -7.40468,8.20711 -12.37606,11.60102 -10.17104,6.94367 -21.98967,10.19957 -33.81493,9.31564 -22.32632,-1.66886 -38.1195,-8.08228 -47.671709,-19.35889 l -2.2249,-2.626536 -2.30423,2.277766 c -5.970981,5.90242 -14.985038,10.25138 -22.63026,10.91828 -1.404679,0.12253 -2.553959,0.26682 -2.553959,0.32063 0,0.0538 0.161111,0.50323 0.358023,0.99868 2.037059,5.1255 2.064281,11.91814 0.07928,19.78084 -1.805434,7.15142 -5.45057,11.44345 -12.62022,14.85992 -3.512045,1.67354 -8.168902,2.90588 -10.857081,2.87309 -1.144,-0.014 -3.52,-0.2813 -5.28,-0.59408 z m 14.25894,-8.83306 c 4.035584,-2.03246 6.787222,-5.38206 7.933811,-9.65793 1.199292,-4.4724 1.673363,-12.85591 0.804464,-14.22621 -0.147079,-0.23196 -0.278983,-0.49374 -0.293117,-0.58174 -0.01414,-0.088 -0.437312,-1.024 -0.940397,-2.08 -1.234509,-2.59129 -5.471952,-6.72769 -9.670611,-9.44 -2.949747,-1.90551 -3.249766,-2.19255 -3.57647,-3.4217 -0.483654,-1.81964 -0.487971,-1.80272 0.62801,-2.46194 1.449293,-0.856116 3.042451,-0.48878 7.668092,1.76807 5.828646,2.8438 7.9076,3.50796 11.617203,3.71133 3.678649,0.20168 5.622956,-0.15169 9.420207,-1.71205 2.381345,-0.97854 6.055135,-2.99452 7.167665,-3.93323 0.23221,-0.19593 1.17727,-0.942446 2.10014,-1.658936 5.118101,-3.97354 9.517641,-12.3269 10.597891,-20.12213 0.42263,-3.049768 -0.24008,-7.606738 -1.78582,-12.279778 -2.41792,-7.30982 -6.942831,-12.82111 -13.530011,-16.47941 -2.63377,-1.46271 -8.040165,-3.14655 -11.944213,-3.72006 -8.553792,-1.25658 -18.457865,1.44658 -25.815784,7.04602 -8.106979,6.16948 -14.519308,18.06531 -15.989818,29.663518 -0.57617,4.54437 0.478457,19.913356 1.948013,28.388206 2.901648,16.73366 9.051955,29.12925 16.279401,32.81019 l 1.437594,0.73217 2.242406,-0.80481 c 1.233322,-0.44264 2.898928,-1.13546 3.701344,-1.53958 z M 70.817651,86.802334 c -5.876265,-2.0493 -14.706533,-9.3786 -17.409842,-14.450518 -2.029667,-3.80805 -1.545817,-7.97922 1.116438,-9.62458 4.195191,-2.59277 13.409382,0.98833 20.813839,8.08932 3.132771,3.00437 5.039414,5.61982 5.916974,8.116648 0.77193,2.19629 0.7954,5.30531 0.0496,6.56789 -1.39315,2.35842 -5.864619,2.91325 -10.486987,1.30124 z M 540.57762,142.76802 c 2.50791,-1.16857 5.06026,-3.09696 8.80067,-6.64915 7.61536,-7.23215 17.17562,-23.9254 23.48087,-41.000096 2.35376,-6.37405 2.59366,-7.66681 1.97641,-10.65084 -0.54803,-2.64941 -2.19955,-6.23363 -3.70733,-8.045778 -1.85974,-2.23514 -5.49987,-4.19782 -7.11497,-3.83623 -1.09504,0.24516 -1.51565,1.76057 -1.51565,5.460818 0,2.63325 -0.18841,4.23472 -0.76425,6.49589 -1.99936,7.85081 -7.93008,19.481026 -9.93418,19.481026 -2.53843,0 -2.21299,-5.317036 0.74781,-12.217246 1.93817,-4.51701 3.35465,-10.0549 4.07337,-15.925318 0.51514,-4.20744 0.51632,-4.65369 0.0186,-6.9762 -1.73446,-8.09259 -8.01888,-14.32959 -16.0488,-15.92768 -3.98604,-0.7933 -5.88044,-0.25072 -9.13251,2.61566 -6.5328,5.75804 -14.72028,17.75359 -22.24464,32.590788 -4.73824,9.34332 -7.51062,16.344456 -8.17958,20.656046 -0.95107,6.12978 2.63683,11.96182 9.4289,15.32645 3.25292,1.61143 4.67724,1.89953 5.78912,1.17099 0.94956,-0.62217 1.02649,-1.55658 0.34387,-4.17723 -0.35655,-1.36898 -0.38973,-2.23259 -0.14503,-3.77562 0.74096,-4.67226 4.92176,-14.67288 7.17821,-17.17049 1.60109,-1.772216 3.24733,-2.590146 5.21325,-2.590146 1.92896,0 3.25974,0.89444 3.24832,2.18323 -0.0195,2.189336 -2.85219,7.069066 -8.02586,13.825346 -1.5535,2.02871 -3.0455,4.31482 -3.31555,5.08023 -1.73513,4.91788 0.81511,12.4907 6.46566,19.19957 3.13719,3.72475 4.7721,5.04338 7.02692,5.66749 1.99094,0.55108 3.95081,0.30007 6.33641,-0.81151 z m 30.27213,-64.118906 c -0.40477,-0.67402 -0.39795,-0.68084 0.15305,-0.15307 0.31719,0.30382 0.50784,0.62126 0.42365,0.70545 -0.0842,0.0842 -0.34371,-0.16438 -0.5767,-0.55238 z m -83.69648,46.457226 c 3.22432,-0.81189 6.24045,-5.12827 6.91747,-9.89958 0.49776,-3.50799 0.16477,-9.33765 -0.65628,-11.49035 -1.18106,-3.09644 -3.71248,-4.711816 -6.8521,-4.372576 -5.51497,0.59591 -6.63206,0.60399 -8.06099,0.0583 -2.23152,-0.85223 -3.64438,-2.97226 -2.79885,-4.19972 0.12931,-0.18771 2.32311,-0.50511 4.87511,-0.70534 5.28361,-0.41455 8.54265,-1.16135 11.90351,-2.72766 6.07732,-2.83231 9.67098,-7.20383 12.0232,-14.62572 1.32224,-4.171968 1.78135,-7.167128 1.7904,-11.679988 0.016,-8.02664 -2.20384,-14.90587 -6.07497,-18.82561 -1.46413,-1.48251 -9.93367,-6.39175 -13.24215,-7.67561 -4.5526,-1.76664 -8.19407,-2.31772 -11.93571,-1.80629 -6.76345,0.92447 -13.63328,5.5311 -17.74243,11.89733 -5.94621,9.2124 -12.89254,22.61858 -15.5496,30.010168 -3.52067,9.79411 -4.18915,16.51265 -2.08774,20.983196 1.19904,2.55087 5.48957,5.90009 9.94627,7.76412 1.68944,0.70662 2.49757,0.84134 5.07773,0.84652 l 3.06848,0.006 1.52281,-1.28 c 5.3154,-4.46785 6.66221,-5.16374 7.645,-3.95006 0.5431,0.67071 0.5776,1.11136 0.37382,4.77507 -0.26666,4.79363 0.089,6.95281 1.49453,9.07484 0.53913,0.81395 1.63433,1.92993 2.43379,2.47997 1.99734,1.3742 9.256,4.65416 11.50662,5.19948 2.34052,0.56709 2.69386,0.57855 4.42208,0.14338 z m 15.21175,-44.602676 c 0.0333,-0.60615 0.56665,-1.62683 0.58521,-1.12 0.01,0.264 -0.12198,0.696 -0.29261,0.96 -0.17062,0.264 -0.30227,0.336 -0.2926,0.16 z m -17.46739,-2.83327 c -2.40029,-0.79245 -4.60836,-2.120608 -7.4305,-4.469468 -3.68189,-3.06445 -5.92006,-5.62338 -7.29478,-8.34025 -1.70544,-3.37044 -1.50132,-5.87683 0.64153,-7.877 0.7537,-0.70352 1.13367,-0.79802 3.1504,-0.78353 1.87504,0.0135 2.68663,0.19918 4.44947,1.01818 3.28356,1.52549 6.71085,4.05166 9.51258,7.01148 3.27053,3.45509 4.59865,6.03797 4.76134,9.2596 0.10951,2.16855 0.0645,2.34783 -0.84387,3.364528 -0.9057,1.01364 -1.09168,1.07857 -3.31286,1.15649 -1.32458,0.0465 -2.91287,-0.10217 -3.63331,-0.34003 z M 159.29764,114.41066 c 13.43849,-3.11855 24.85922,-11.62005 31.32215,-23.315946 3.80682,-6.88916 6.09901,-14.791508 7.0482,-24.298718 0.26388,-2.64304 0.21599,-3.74606 -0.29868,-6.88 -0.80469,-4.89993 -1.67589,-8.1606 -3.19965,-11.97548 -6.12997,-15.34692 -18.77487,-23.74426 -37.94584,-25.19941 -4.20362,-0.31907 -4.4775,-0.30148 -7.28698,0.46807 -4.04912,1.10911 -7.41263,2.45462 -11.7192,4.68804 -13.78408,7.14853 -22.30283,18.39499 -24.8193,32.76646 -0.73754,4.21204 -0.74273,13.07696 -0.0104,17.725188 1.3068,8.29427 2.20737,10.9119 5.48302,15.9372 7.81019,11.981886 18.2235,19.046156 30.31804,20.567416 2.9675,0.37325 8.44565,0.13515 11.10863,-0.48282 z m 9.19467,-6.5867 c 0.21707,-0.2187 0.47527,-0.31702 0.5738,-0.21849 0.0985,0.0985 -0.0791,0.27745 -0.39467,0.39762 -0.45606,0.17366 -0.49282,0.1369 -0.17913,-0.17913 z M 154.85933,80.931804 c -3.48521,-1.73282 -6.07324,-5.711118 -6.91523,-10.630048 -1.27298,-7.4368 0.12447,-14.01174 3.20699,-15.08882 0.52061,-0.18191 1.45055,-0.64937 2.06655,-1.0388 3.19397,-2.01924 7.69686,0.6829 10.28104,6.16954 2.04165,4.33475 2.79875,10.50967 1.72903,14.10191 -0.64764,2.174838 -2.33188,4.854618 -3.78197,6.017438 -1.63506,1.31116 -4.48425,1.51395 -6.58641,0.46878 z m 247.09104,22.568946 c 11.57721,-2.63318 22.77724,-11.699856 28.08563,-22.735986 4.62176,-9.608578 6.13804,-22.030258 3.97718,-32.581098 -3.27216,-15.97687 -15.23197,-27.80437 -29.91555,-29.5846 -14.76422,-1.79001 -31.94483,9.62424 -38.50973,25.5846 -2.38355,5.79484 -3.50668,12.00044 -3.50396,19.36001 0,4.13738 0.13942,5.73065 0.71862,8.30186 2.00682,8.908948 5.75315,15.841948 11.62326,21.510218 5.83811,5.63736 13.00307,8.960446 21.95338,10.181856 1.69315,0.23106 3.12201,0.43495 3.17526,0.45308 0.0533,0.0181 1.13143,-0.20234 2.39591,-0.48994 z M 397.1559,74.559006 c -1.56214,-0.77325 -3.62105,-2.89903 -4.52614,-4.67315 -1.4136,-2.77089 -1.72845,-4.69557 -1.58042,-9.66081 0.15306,-5.13385 0.64781,-7.04987 2.46992,-9.56525 2.02602,-2.79682 6.57885,-3.72076 9.2416,-1.87547 1.73232,1.2005 3.33466,3.65336 4.43824,6.7941 0.80998,2.30514 0.88646,2.91573 0.87776,7.00525 -0.0109,5.01461 -0.25293,5.97653 -2.27014,9.01561 -2.25779,3.40146 -5.51031,4.51426 -8.65082,2.95972 z m 33.96858,-32.63662 c -0.11604,-0.18771 -0.14231,-0.40992 -0.0584,-0.49381 0.0839,-0.0839 0.2378,0.0697 0.34202,0.34129 0.21638,0.56388 0.032,0.66306 -0.28358,0.15252 z M 223.54526,100.18695 c 2.31612,-1.080736 4.72902,-3.353946 6.79283,-6.399516 1.8408,-2.71649 2.11725,-3.60313 2.56234,-8.21792 0.74384,-7.71246 -0.76447,-13.841548 -4.52265,-18.377978 -1.52678,-1.84294 -1.88014,-2.76636 -1.88014,-4.91325 0,-1.89235 0.75478,-3.23607 1.62924,-2.90051 0.277,0.10629 1.46747,1.40555 2.64551,2.88725 2.70616,3.40372 7.29186,7.53258 9.70725,8.74019 7.18427,3.59188 14.30645,3.7677 21.101,0.52093 5.43769,-2.5984 12.03356,-12.24172 14.21486,-20.78248 1.00291,-3.92679 1.0113,-9.72681 0.0195,-13.44 -1.51653,-5.67745 -4.78756,-10.99414 -9.86381,-16.0325 -2.49166,-2.47308 -3.85903,-3.5504 -5.76448,-4.54172 -10.50715,-5.46642 -21.89938,-4.97436 -31.42351,1.35726 -5.57948,3.70924 -11.722,10.8411 -14.62191,16.97696 -6.29612,13.32189 -8.00161,32.95809 -4.87773,56.159998 0.73223,5.43849 1.00563,6.22637 2.57526,7.42147 3.84936,2.930816 7.65545,3.432106 11.70649,1.541816 z M 212.8176,97.324804 c -1.28618,-0.9317 -1.9222,-1.62114 -1.49554,-1.62114 0.1222,0 0.54707,0.324 0.94414,0.72 0.39707,0.396 1.06159,0.96559 1.4767,1.26575 0.4151,0.30016 0.66835,0.55216 0.56275,0.56 -0.10559,0.008 -0.77521,-0.40824 -1.48805,-0.92461 z m 38.80004,-43.670468 c -3.46649,-1.10094 -7.81436,-4.25492 -11.90726,-8.6376 -4.00643,-4.29008 -5.43877,-8.27526 -4.03347,-11.22221 0.43181,-0.90551 0.72179,-1.13086 1.45527,-1.13086 0.57701,0 1.20331,-0.30999 1.69228,-0.8376 0.70395,-0.75957 0.91865,-0.81632 2.30472,-0.60918 3.62412,0.54161 8.12946,3.15166 12.27952,7.11382 4.32219,4.12649 6.36894,7.71045 6.36894,11.15229 0,3.33394 -1.37736,4.63629 -4.86411,4.59927 -1.10874,-0.0118 -2.59189,-0.20435 -3.29589,-0.42793 z m 78.35186,39.604818 c 3.20516,-0.60257 6.2696,-1.70471 10.2473,-3.68547 3.89136,-1.93778 5.33549,-2.93139 7.4448,-5.12239 2.128,-2.21042 3.13248,-3.86735 4.11027,-6.78012 1.17507,-3.500558 1.56291,-7.768938 1.11715,-12.294998 -0.40342,-4.09593 -0.84681,-5.11104 -2.63686,-6.03671 -1.73549,-0.89744 -3.59328,-0.618 -6.9137,1.03995 -2.7647,1.38047 -3.22745,1.50928 -5.92,1.64782 -8.86291,0.45603 -17.49868,-3.75381 -21.17107,-10.32065 -1.29404,-2.31394 -2.38976,-6.27468 -2.38976,-8.63832 0,-2.14305 0.88297,-3.06964 3.13093,-3.28564 2.20358,-0.21174 3.0212,0.59939 3.89096,3.86003 1.32583,4.97054 3.63411,8.09713 7.14314,9.67543 5.44105,2.44732 12.54953,0.64714 17.69584,-4.48137 2.36928,-2.36106 4.15308,-5.10313 4.50912,-6.93144 0.11587,-0.59488 0.34812,-1.17207 0.51619,-1.28264 0.89753,-0.59059 1.13523,-6.49746 0.37875,-9.41173 -1.51242,-5.82629 -6.9024,-13.30983 -12.42454,-17.25034 -4.86653,-3.47269 -9.8048,-5.0437597 -15.88039,-5.0521997 -7.23036,-0.0101 -15.15142,2.4235397 -21.15802,6.5003997 -4.31746,2.93038 -8.96763,8.60086 -11.5968,14.14132 -6.78574,14.29958 -7.34604,34.58301 -1.26167,45.67358 1.4813,2.700118 7.23774,8.426948 11.13649,11.079238 6.40188,4.35513 13.38358,6.96398 20.32,7.59298 2.196,0.19914 6.90954,-0.10989 9.71187,-0.63673 z"
     id="path28"
     inkscape:connector-curvature="0" />
</svg>
